<mxfile host="app.diagrams.net" modified="2024-05-02T10:32:30.080Z" agent="Mozilla/5.0 (Windows NT 10.0; Win64; x64) AppleWebKit/537.36 (KHTML, like Gecko) Chrome/124.0.0.0 Safari/537.36" etag="FIqknVTsZtVFuQF9LWt5" version="24.2.5" type="device">
  <diagram id="C5RBs43oDa-KdzZeNtuy" name="Page-1">
    <mxGraphModel dx="2391" dy="1066" grid="0" gridSize="10" guides="1" tooltips="1" connect="1" arrows="1" fold="1" page="1" pageScale="1" pageWidth="2336" pageHeight="1654" math="0" shadow="0">
      <root>
        <mxCell id="WIyWlLk6GJQsqaUBKTNV-0" />
        <mxCell id="WIyWlLk6GJQsqaUBKTNV-1" parent="WIyWlLk6GJQsqaUBKTNV-0" />
        <mxCell id="Y2zz0TrjtTy9LPRPg7NF-144" style="edgeStyle=orthogonalEdgeStyle;rounded=0;orthogonalLoop=1;jettySize=auto;html=1;exitX=0.5;exitY=1;exitDx=0;exitDy=0;entryX=0.5;entryY=0;entryDx=0;entryDy=0;" edge="1" parent="WIyWlLk6GJQsqaUBKTNV-1" source="Y2zz0TrjtTy9LPRPg7NF-145" target="Y2zz0TrjtTy9LPRPg7NF-147">
          <mxGeometry relative="1" as="geometry" />
        </mxCell>
        <mxCell id="Y2zz0TrjtTy9LPRPg7NF-145" value="START" style="ellipse;whiteSpace=wrap;html=1;" vertex="1" parent="WIyWlLk6GJQsqaUBKTNV-1">
          <mxGeometry x="941" y="27" width="80" height="40" as="geometry" />
        </mxCell>
        <mxCell id="Y2zz0TrjtTy9LPRPg7NF-146" style="edgeStyle=orthogonalEdgeStyle;rounded=0;orthogonalLoop=1;jettySize=auto;html=1;entryX=0.5;entryY=0;entryDx=0;entryDy=0;" edge="1" parent="WIyWlLk6GJQsqaUBKTNV-1" source="Y2zz0TrjtTy9LPRPg7NF-147" target="Y2zz0TrjtTy9LPRPg7NF-149">
          <mxGeometry relative="1" as="geometry" />
        </mxCell>
        <mxCell id="Y2zz0TrjtTy9LPRPg7NF-147" value="Initialise Sensors and Peripherals" style="rounded=1;whiteSpace=wrap;html=1;" vertex="1" parent="WIyWlLk6GJQsqaUBKTNV-1">
          <mxGeometry x="901" y="107" width="160" height="40" as="geometry" />
        </mxCell>
        <mxCell id="Y2zz0TrjtTy9LPRPg7NF-148" style="edgeStyle=orthogonalEdgeStyle;rounded=0;orthogonalLoop=1;jettySize=auto;html=1;entryX=0.5;entryY=0;entryDx=0;entryDy=0;" edge="1" parent="WIyWlLk6GJQsqaUBKTNV-1" source="Y2zz0TrjtTy9LPRPg7NF-149" target="Y2zz0TrjtTy9LPRPg7NF-151">
          <mxGeometry relative="1" as="geometry" />
        </mxCell>
        <mxCell id="Y2zz0TrjtTy9LPRPg7NF-149" value="Set up Files" style="rounded=1;whiteSpace=wrap;html=1;" vertex="1" parent="WIyWlLk6GJQsqaUBKTNV-1">
          <mxGeometry x="901" y="187" width="160" height="40" as="geometry" />
        </mxCell>
        <mxCell id="Y2zz0TrjtTy9LPRPg7NF-150" style="edgeStyle=orthogonalEdgeStyle;rounded=0;orthogonalLoop=1;jettySize=auto;html=1;exitX=0.5;exitY=1;exitDx=0;exitDy=0;entryX=0.5;entryY=0;entryDx=0;entryDy=0;" edge="1" parent="WIyWlLk6GJQsqaUBKTNV-1" source="Y2zz0TrjtTy9LPRPg7NF-151" target="Y2zz0TrjtTy9LPRPg7NF-158">
          <mxGeometry relative="1" as="geometry" />
        </mxCell>
        <mxCell id="Y2zz0TrjtTy9LPRPg7NF-151" value="Set up Sleep Mode" style="rounded=1;whiteSpace=wrap;html=1;" vertex="1" parent="WIyWlLk6GJQsqaUBKTNV-1">
          <mxGeometry x="901" y="267" width="160" height="40" as="geometry" />
        </mxCell>
        <mxCell id="Y2zz0TrjtTy9LPRPg7NF-152" style="edgeStyle=orthogonalEdgeStyle;rounded=0;orthogonalLoop=1;jettySize=auto;html=1;entryX=1;entryY=0.5;entryDx=0;entryDy=0;" edge="1" parent="WIyWlLk6GJQsqaUBKTNV-1" source="Y2zz0TrjtTy9LPRPg7NF-158" target="Y2zz0TrjtTy9LPRPg7NF-160">
          <mxGeometry relative="1" as="geometry" />
        </mxCell>
        <mxCell id="Y2zz0TrjtTy9LPRPg7NF-153" value="NIGHTIME" style="edgeLabel;html=1;align=center;verticalAlign=middle;resizable=0;points=[];fontStyle=1" vertex="1" connectable="0" parent="Y2zz0TrjtTy9LPRPg7NF-152">
          <mxGeometry x="-0.1328" relative="1" as="geometry">
            <mxPoint as="offset" />
          </mxGeometry>
        </mxCell>
        <mxCell id="Y2zz0TrjtTy9LPRPg7NF-154" style="edgeStyle=orthogonalEdgeStyle;rounded=0;orthogonalLoop=1;jettySize=auto;html=1;exitX=1;exitY=0.5;exitDx=0;exitDy=0;entryX=0;entryY=0.5;entryDx=0;entryDy=0;" edge="1" parent="WIyWlLk6GJQsqaUBKTNV-1" source="Y2zz0TrjtTy9LPRPg7NF-158" target="Y2zz0TrjtTy9LPRPg7NF-166">
          <mxGeometry relative="1" as="geometry" />
        </mxCell>
        <mxCell id="Y2zz0TrjtTy9LPRPg7NF-155" value="&lt;b&gt;DAYTIME&lt;/b&gt;" style="edgeLabel;html=1;align=center;verticalAlign=middle;resizable=0;points=[];" vertex="1" connectable="0" parent="Y2zz0TrjtTy9LPRPg7NF-154">
          <mxGeometry x="-0.2333" y="2" relative="1" as="geometry">
            <mxPoint x="14" y="2" as="offset" />
          </mxGeometry>
        </mxCell>
        <mxCell id="Y2zz0TrjtTy9LPRPg7NF-156" style="edgeStyle=orthogonalEdgeStyle;rounded=0;orthogonalLoop=1;jettySize=auto;html=1;exitX=0.5;exitY=1;exitDx=0;exitDy=0;entryX=0.5;entryY=0;entryDx=0;entryDy=0;" edge="1" parent="WIyWlLk6GJQsqaUBKTNV-1" source="Y2zz0TrjtTy9LPRPg7NF-158" target="Y2zz0TrjtTy9LPRPg7NF-171">
          <mxGeometry relative="1" as="geometry" />
        </mxCell>
        <mxCell id="Y2zz0TrjtTy9LPRPg7NF-157" value="&lt;b&gt;DAYTIME&lt;/b&gt;" style="edgeLabel;html=1;align=center;verticalAlign=middle;resizable=0;points=[];" vertex="1" connectable="0" parent="Y2zz0TrjtTy9LPRPg7NF-156">
          <mxGeometry x="-0.2819" relative="1" as="geometry">
            <mxPoint as="offset" />
          </mxGeometry>
        </mxCell>
        <mxCell id="Y2zz0TrjtTy9LPRPg7NF-158" value="Check&amp;nbsp;&lt;div&gt;Daylight Sensor&lt;div&gt;?&lt;/div&gt;&lt;/div&gt;" style="rhombus;whiteSpace=wrap;html=1;" vertex="1" parent="WIyWlLk6GJQsqaUBKTNV-1">
          <mxGeometry x="901" y="387" width="160" height="80" as="geometry" />
        </mxCell>
        <mxCell id="Y2zz0TrjtTy9LPRPg7NF-159" style="edgeStyle=orthogonalEdgeStyle;rounded=0;orthogonalLoop=1;jettySize=auto;html=1;exitX=0;exitY=0.5;exitDx=0;exitDy=0;" edge="1" parent="WIyWlLk6GJQsqaUBKTNV-1" source="Y2zz0TrjtTy9LPRPg7NF-160">
          <mxGeometry relative="1" as="geometry">
            <mxPoint x="981" y="347" as="targetPoint" />
            <Array as="points">
              <mxPoint x="581" y="427" />
              <mxPoint x="581" y="347" />
            </Array>
          </mxGeometry>
        </mxCell>
        <mxCell id="Y2zz0TrjtTy9LPRPg7NF-160" value="Enter Deep Sleep Mode&amp;nbsp;&lt;div&gt;For 1 hour&lt;/div&gt;" style="rounded=1;whiteSpace=wrap;html=1;" vertex="1" parent="WIyWlLk6GJQsqaUBKTNV-1">
          <mxGeometry x="621" y="407" width="160" height="40" as="geometry" />
        </mxCell>
        <mxCell id="Y2zz0TrjtTy9LPRPg7NF-161" style="edgeStyle=orthogonalEdgeStyle;rounded=0;orthogonalLoop=1;jettySize=auto;html=1;exitX=0.5;exitY=1;exitDx=0;exitDy=0;entryX=0.5;entryY=0;entryDx=0;entryDy=0;" edge="1" parent="WIyWlLk6GJQsqaUBKTNV-1" source="Y2zz0TrjtTy9LPRPg7NF-166" target="Y2zz0TrjtTy9LPRPg7NF-179">
          <mxGeometry relative="1" as="geometry" />
        </mxCell>
        <mxCell id="Y2zz0TrjtTy9LPRPg7NF-162" value="&lt;b&gt;YES&lt;/b&gt;" style="edgeLabel;html=1;align=center;verticalAlign=middle;resizable=0;points=[];" vertex="1" connectable="0" parent="Y2zz0TrjtTy9LPRPg7NF-161">
          <mxGeometry x="-0.2534" relative="1" as="geometry">
            <mxPoint y="10" as="offset" />
          </mxGeometry>
        </mxCell>
        <mxCell id="Y2zz0TrjtTy9LPRPg7NF-163" style="edgeStyle=orthogonalEdgeStyle;rounded=0;orthogonalLoop=1;jettySize=auto;html=1;exitX=1;exitY=0.5;exitDx=0;exitDy=0;entryX=0;entryY=0.5;entryDx=0;entryDy=0;" edge="1" parent="WIyWlLk6GJQsqaUBKTNV-1" source="Y2zz0TrjtTy9LPRPg7NF-166" target="Y2zz0TrjtTy9LPRPg7NF-181">
          <mxGeometry relative="1" as="geometry" />
        </mxCell>
        <mxCell id="Y2zz0TrjtTy9LPRPg7NF-164" value="&lt;b&gt;NO&lt;/b&gt;" style="edgeLabel;html=1;align=center;verticalAlign=middle;resizable=0;points=[];" vertex="1" connectable="0" parent="Y2zz0TrjtTy9LPRPg7NF-163">
          <mxGeometry x="0.0466" y="-1" relative="1" as="geometry">
            <mxPoint as="offset" />
          </mxGeometry>
        </mxCell>
        <mxCell id="Y2zz0TrjtTy9LPRPg7NF-165" style="edgeStyle=orthogonalEdgeStyle;rounded=0;orthogonalLoop=1;jettySize=auto;html=1;exitX=0.5;exitY=1;exitDx=0;exitDy=0;entryX=0.5;entryY=0;entryDx=0;entryDy=0;" edge="1" parent="WIyWlLk6GJQsqaUBKTNV-1" source="Y2zz0TrjtTy9LPRPg7NF-166" target="Y2zz0TrjtTy9LPRPg7NF-185">
          <mxGeometry relative="1" as="geometry">
            <Array as="points">
              <mxPoint x="1301" y="487" />
              <mxPoint x="1541" y="487" />
            </Array>
          </mxGeometry>
        </mxCell>
        <mxCell id="Y2zz0TrjtTy9LPRPg7NF-166" value="Check Bird&lt;div&gt;&amp;nbsp;Presence on Scale&lt;div&gt;?&lt;/div&gt;&lt;/div&gt;" style="rhombus;whiteSpace=wrap;html=1;" vertex="1" parent="WIyWlLk6GJQsqaUBKTNV-1">
          <mxGeometry x="1221" y="387" width="160" height="80" as="geometry" />
        </mxCell>
        <mxCell id="Y2zz0TrjtTy9LPRPg7NF-167" style="edgeStyle=orthogonalEdgeStyle;rounded=0;orthogonalLoop=1;jettySize=auto;html=1;exitX=0.5;exitY=1;exitDx=0;exitDy=0;entryX=0.5;entryY=0;entryDx=0;entryDy=0;" edge="1" parent="WIyWlLk6GJQsqaUBKTNV-1" source="Y2zz0TrjtTy9LPRPg7NF-171" target="Y2zz0TrjtTy9LPRPg7NF-173">
          <mxGeometry relative="1" as="geometry" />
        </mxCell>
        <mxCell id="Y2zz0TrjtTy9LPRPg7NF-168" value="&lt;b&gt;YES&lt;/b&gt;" style="edgeLabel;html=1;align=center;verticalAlign=middle;resizable=0;points=[];" vertex="1" connectable="0" parent="Y2zz0TrjtTy9LPRPg7NF-167">
          <mxGeometry x="-0.1095" relative="1" as="geometry">
            <mxPoint as="offset" />
          </mxGeometry>
        </mxCell>
        <mxCell id="Y2zz0TrjtTy9LPRPg7NF-169" style="edgeStyle=orthogonalEdgeStyle;rounded=0;orthogonalLoop=1;jettySize=auto;html=1;exitX=1;exitY=0.5;exitDx=0;exitDy=0;" edge="1" parent="WIyWlLk6GJQsqaUBKTNV-1" source="Y2zz0TrjtTy9LPRPg7NF-171">
          <mxGeometry relative="1" as="geometry">
            <mxPoint x="981" y="507" as="targetPoint" />
            <Array as="points">
              <mxPoint x="1141" y="587" />
              <mxPoint x="1141" y="507" />
            </Array>
          </mxGeometry>
        </mxCell>
        <mxCell id="Y2zz0TrjtTy9LPRPg7NF-170" value="&lt;b&gt;NO&lt;/b&gt;" style="edgeLabel;html=1;align=center;verticalAlign=middle;resizable=0;points=[];" vertex="1" connectable="0" parent="Y2zz0TrjtTy9LPRPg7NF-169">
          <mxGeometry x="-0.7427" relative="1" as="geometry">
            <mxPoint as="offset" />
          </mxGeometry>
        </mxCell>
        <mxCell id="Y2zz0TrjtTy9LPRPg7NF-171" value="Check&amp;nbsp;&lt;div&gt;&amp;nbsp;Weather Data&lt;/div&gt;&lt;div&gt;Ready&lt;br&gt;&lt;div&gt;?&lt;/div&gt;&lt;/div&gt;" style="rhombus;whiteSpace=wrap;html=1;" vertex="1" parent="WIyWlLk6GJQsqaUBKTNV-1">
          <mxGeometry x="901" y="547" width="160" height="80" as="geometry" />
        </mxCell>
        <mxCell id="Y2zz0TrjtTy9LPRPg7NF-172" style="edgeStyle=orthogonalEdgeStyle;rounded=0;orthogonalLoop=1;jettySize=auto;html=1;exitX=0.5;exitY=1;exitDx=0;exitDy=0;entryX=0;entryY=0.5;entryDx=0;entryDy=0;" edge="1" parent="WIyWlLk6GJQsqaUBKTNV-1" source="Y2zz0TrjtTy9LPRPg7NF-173" target="Y2zz0TrjtTy9LPRPg7NF-183">
          <mxGeometry relative="1" as="geometry" />
        </mxCell>
        <mxCell id="Y2zz0TrjtTy9LPRPg7NF-173" value="Read Temperature&lt;div&gt;Read Humidity&lt;/div&gt;" style="rounded=1;whiteSpace=wrap;html=1;" vertex="1" parent="WIyWlLk6GJQsqaUBKTNV-1">
          <mxGeometry x="901" y="707" width="160" height="40" as="geometry" />
        </mxCell>
        <mxCell id="Y2zz0TrjtTy9LPRPg7NF-174" style="edgeStyle=orthogonalEdgeStyle;rounded=0;orthogonalLoop=1;jettySize=auto;html=1;exitX=0.5;exitY=1;exitDx=0;exitDy=0;entryX=0.5;entryY=0;entryDx=0;entryDy=0;" edge="1" parent="WIyWlLk6GJQsqaUBKTNV-1" source="Y2zz0TrjtTy9LPRPg7NF-175" target="Y2zz0TrjtTy9LPRPg7NF-177">
          <mxGeometry relative="1" as="geometry" />
        </mxCell>
        <mxCell id="Y2zz0TrjtTy9LPRPg7NF-175" value="Dynamic Weight Analysis" style="rounded=1;whiteSpace=wrap;html=1;" vertex="1" parent="WIyWlLk6GJQsqaUBKTNV-1">
          <mxGeometry x="1221" y="627" width="160" height="40" as="geometry" />
        </mxCell>
        <mxCell id="Y2zz0TrjtTy9LPRPg7NF-176" style="edgeStyle=orthogonalEdgeStyle;rounded=0;orthogonalLoop=1;jettySize=auto;html=1;exitX=0.5;exitY=1;exitDx=0;exitDy=0;entryX=1;entryY=0.5;entryDx=0;entryDy=0;" edge="1" parent="WIyWlLk6GJQsqaUBKTNV-1" source="Y2zz0TrjtTy9LPRPg7NF-177" target="Y2zz0TrjtTy9LPRPg7NF-183">
          <mxGeometry relative="1" as="geometry" />
        </mxCell>
        <mxCell id="Y2zz0TrjtTy9LPRPg7NF-177" value="Read Weight Data" style="rounded=1;whiteSpace=wrap;html=1;" vertex="1" parent="WIyWlLk6GJQsqaUBKTNV-1">
          <mxGeometry x="1221" y="707" width="160" height="40" as="geometry" />
        </mxCell>
        <mxCell id="Y2zz0TrjtTy9LPRPg7NF-178" style="edgeStyle=orthogonalEdgeStyle;rounded=0;orthogonalLoop=1;jettySize=auto;html=1;exitX=0.5;exitY=1;exitDx=0;exitDy=0;entryX=0.5;entryY=0;entryDx=0;entryDy=0;" edge="1" parent="WIyWlLk6GJQsqaUBKTNV-1" source="Y2zz0TrjtTy9LPRPg7NF-179" target="Y2zz0TrjtTy9LPRPg7NF-175">
          <mxGeometry relative="1" as="geometry" />
        </mxCell>
        <mxCell id="Y2zz0TrjtTy9LPRPg7NF-179" value="Collect Raw Scale Readings" style="rounded=1;whiteSpace=wrap;html=1;" vertex="1" parent="WIyWlLk6GJQsqaUBKTNV-1">
          <mxGeometry x="1221" y="547" width="160" height="40" as="geometry" />
        </mxCell>
        <mxCell id="Y2zz0TrjtTy9LPRPg7NF-180" style="edgeStyle=orthogonalEdgeStyle;rounded=0;orthogonalLoop=1;jettySize=auto;html=1;entryX=0.5;entryY=0;entryDx=0;entryDy=0;" edge="1" parent="WIyWlLk6GJQsqaUBKTNV-1" source="Y2zz0TrjtTy9LPRPg7NF-181" target="Y2zz0TrjtTy9LPRPg7NF-166">
          <mxGeometry relative="1" as="geometry">
            <mxPoint x="1591" y="317" as="targetPoint" />
            <Array as="points">
              <mxPoint x="1661" y="427" />
              <mxPoint x="1661" y="367" />
              <mxPoint x="1301" y="367" />
            </Array>
          </mxGeometry>
        </mxCell>
        <mxCell id="Y2zz0TrjtTy9LPRPg7NF-181" value="Collect Background Scale Readings" style="rounded=1;whiteSpace=wrap;html=1;" vertex="1" parent="WIyWlLk6GJQsqaUBKTNV-1">
          <mxGeometry x="1461" y="407" width="160" height="40" as="geometry" />
        </mxCell>
        <mxCell id="Y2zz0TrjtTy9LPRPg7NF-182" style="edgeStyle=orthogonalEdgeStyle;rounded=0;orthogonalLoop=1;jettySize=auto;html=1;exitX=0.5;exitY=1;exitDx=0;exitDy=0;" edge="1" parent="WIyWlLk6GJQsqaUBKTNV-1" source="Y2zz0TrjtTy9LPRPg7NF-183">
          <mxGeometry relative="1" as="geometry">
            <mxPoint x="581" y="427" as="targetPoint" />
            <Array as="points">
              <mxPoint x="1141" y="947" />
              <mxPoint x="582" y="947" />
            </Array>
          </mxGeometry>
        </mxCell>
        <mxCell id="Y2zz0TrjtTy9LPRPg7NF-183" value="Write Timestampped Data to&lt;div&gt;SD card&lt;/div&gt;" style="rounded=1;whiteSpace=wrap;html=1;" vertex="1" parent="WIyWlLk6GJQsqaUBKTNV-1">
          <mxGeometry x="1061" y="827" width="160" height="80" as="geometry" />
        </mxCell>
        <mxCell id="Y2zz0TrjtTy9LPRPg7NF-184" style="edgeStyle=orthogonalEdgeStyle;rounded=0;orthogonalLoop=1;jettySize=auto;html=1;exitX=0.5;exitY=1;exitDx=0;exitDy=0;" edge="1" parent="WIyWlLk6GJQsqaUBKTNV-1" source="Y2zz0TrjtTy9LPRPg7NF-185" target="Y2zz0TrjtTy9LPRPg7NF-187">
          <mxGeometry relative="1" as="geometry" />
        </mxCell>
        <mxCell id="Y2zz0TrjtTy9LPRPg7NF-185" value="Take Pictures of&lt;div&gt;Bird on scale&lt;/div&gt;" style="rounded=1;whiteSpace=wrap;html=1;" vertex="1" parent="WIyWlLk6GJQsqaUBKTNV-1">
          <mxGeometry x="1461" y="587" width="160" height="40" as="geometry" />
        </mxCell>
        <mxCell id="Y2zz0TrjtTy9LPRPg7NF-186" style="edgeStyle=orthogonalEdgeStyle;rounded=0;orthogonalLoop=1;jettySize=auto;html=1;exitX=0.5;exitY=1;exitDx=0;exitDy=0;" edge="1" parent="WIyWlLk6GJQsqaUBKTNV-1" source="Y2zz0TrjtTy9LPRPg7NF-187">
          <mxGeometry relative="1" as="geometry">
            <mxPoint x="1141" y="947" as="targetPoint" />
            <Array as="points">
              <mxPoint x="1541" y="947" />
            </Array>
          </mxGeometry>
        </mxCell>
        <mxCell id="Y2zz0TrjtTy9LPRPg7NF-187" value="Save Pictures&amp;nbsp;&lt;div&gt;to SD Card&lt;/div&gt;" style="rounded=1;whiteSpace=wrap;html=1;" vertex="1" parent="WIyWlLk6GJQsqaUBKTNV-1">
          <mxGeometry x="1461" y="707" width="160" height="40" as="geometry" />
        </mxCell>
      </root>
    </mxGraphModel>
  </diagram>
</mxfile>
